<svg height="800px" width="800px" version="1.1" id="Layer_1" xmlns="http://www.w3.org/2000/svg" xmlns:xlink="http://www.w3.org/1999/xlink" 
	 viewBox="0 0 512 512" xml:space="preserve">
<g transform="translate(1 1)">
	<path style="fill:#FFE100;" d="M263.107,50.2c-5.12,0-8.533-3.413-8.533-8.533V7.533c0-5.12,3.413-8.533,8.533-8.533
		c5.12,0,8.533,3.413,8.533,8.533v34.133C271.64,46.787,268.227,50.2,263.107,50.2z"/>
	<polygon style="fill:#00DA6C;" points="160.707,169.667 348.44,169.667 348.44,135.533 160.707,135.533 	"/>
	<polygon style="fill:#FFFFFF;" points="160.707,169.667 186.307,169.667 186.307,135.533 160.707,135.533 	"/>
	<polygon style="fill:#FFE100;" points="254.573,41.667 143.64,135.533 365.507,135.533 	"/>
	<polygon style="fill:#FFFFFF;" points="254.573,41.667 143.64,135.533 169.24,135.533 254.573,50.2 	"/>
	<polygon style="fill:#00AD55;" points="322.84,169.667 348.44,169.667 348.44,135.533 322.84,135.533 	"/>
	<polygon style="fill:#FFA800;" points="254.573,41.667 365.507,135.533 339.907,135.533 254.573,50.2 	"/>
	<g>
		<polygon style="fill:#FFE100;" points="177.773,417.133 331.373,417.133 331.373,169.667 177.773,169.667 		"/>
		<polygon style="fill:#FFE100;" points="356.973,502.467 152.173,502.467 160.707,417.133 348.44,417.133 		"/>
	</g>
	<g>
		<polygon style="fill:#FFA800;" points="305.773,417.133 331.373,417.133 331.373,169.667 305.773,169.667 		"/>
		<polygon style="fill:#FFA800;" points="348.44,417.133 322.84,417.133 331.373,502.467 356.973,502.467 		"/>
	</g>
	<g>
		<polygon style="fill:#FFFFFF;" points="177.773,417.133 203.373,417.133 203.373,169.667 177.773,169.667 		"/>
		<polygon style="fill:#FFFFFF;" points="160.707,417.133 186.307,417.133 177.773,502.467 152.173,502.467 		"/>
	</g>
	<g>
		<path style="fill:#00DA6C;" d="M271.64,272.067h-34.133V229.4c0-9.387,7.68-17.067,17.067-17.067s17.067,7.68,17.067,17.067
			V272.067z"/>
		<path style="fill:#00DA6C;" d="M271.64,374.467h-34.133V331.8c0-9.387,7.68-17.067,17.067-17.067s17.067,7.68,17.067,17.067
			V374.467z"/>
	</g>
	<path d="M331.373,459.8c0,5.12-3.413,8.533-8.533,8.533c-5.12,0-8.533-3.413-8.533-8.533s3.413-8.533,8.533-8.533
		C327.96,451.267,331.373,454.68,331.373,459.8"/>
	<path d="M254.573,50.2c-5.12,0-8.533-3.413-8.533-8.533V7.533c0-5.12,3.413-8.533,8.533-8.533s8.533,3.413,8.533,8.533v34.133
		C263.107,46.787,259.693,50.2,254.573,50.2z"/>
	<path d="M365.507,144.067H143.64c-3.413,0-6.827-2.56-7.68-5.973s0-6.827,2.56-9.387L249.453,34.84c3.413-2.56,7.68-2.56,11.093,0
		l110.933,93.867c2.56,2.56,3.413,5.973,2.56,9.387C372.333,141.507,368.92,144.067,365.507,144.067z M166.68,127h174.933
		l-87.04-74.24L166.68,127z"/>
	<path d="M331.373,425.667h-153.6c-5.12,0-8.533-3.413-8.533-8.533V169.667c0-5.12,3.413-8.533,8.533-8.533h153.6
		c5.12,0,8.533,3.413,8.533,8.533v247.467C339.907,422.253,336.493,425.667,331.373,425.667z M186.307,408.6H322.84V178.2H186.307
		V408.6z"/>
	<path d="M356.973,511h-204.8c-2.56,0-5.12-0.853-5.973-2.56c-1.707-1.707-2.56-4.267-2.56-6.827l8.533-85.333
		c0.853-4.267,4.267-7.68,8.533-7.68H348.44c4.267,0,7.68,3.413,8.533,7.68l8.533,85.333c0,2.56-0.853,5.12-2.56,6.827
		C362.093,510.147,359.533,511,356.973,511z M161.56,493.933h186.027l-6.827-68.267H168.387L161.56,493.933z"/>
	<path d="M288.707,468.333h-51.2c-5.12,0-8.533-3.413-8.533-8.533s3.413-8.533,8.533-8.533h51.2c5.12,0,8.533,3.413,8.533,8.533
		S293.827,468.333,288.707,468.333z"/>
	<path d="M203.373,468.333h-17.067c-5.12,0-8.533-3.413-8.533-8.533s3.413-8.533,8.533-8.533h17.067c5.12,0,8.533,3.413,8.533,8.533
		S208.493,468.333,203.373,468.333z"/>
	<path d="M203.373,220.867h-25.6c-5.12,0-8.533-3.413-8.533-8.533c0-5.12,3.413-8.533,8.533-8.533h25.6
		c5.12,0,8.533,3.413,8.533,8.533C211.907,217.453,208.493,220.867,203.373,220.867z"/>
	<path d="M331.373,306.2h-25.6c-5.12,0-8.533-3.413-8.533-8.533s3.413-8.533,8.533-8.533h25.6c5.12,0,8.533,3.413,8.533,8.533
		S336.493,306.2,331.373,306.2z"/>
	<path d="M203.373,383h-25.6c-5.12,0-8.533-3.413-8.533-8.533c0-5.12,3.413-8.533,8.533-8.533h25.6c5.12,0,8.533,3.413,8.533,8.533
		C211.907,379.587,208.493,383,203.373,383z"/>
	<path d="M271.64,280.6h-34.133c-5.12,0-8.533-3.413-8.533-8.533V229.4c0-14.507,11.093-25.6,25.6-25.6s25.6,11.093,25.6,25.6
		v42.667C280.173,277.187,276.76,280.6,271.64,280.6z M246.04,263.533h17.067V229.4c0-5.12-3.413-8.533-8.533-8.533
		s-8.533,3.413-8.533,8.533V263.533z"/>
	<path d="M271.64,383h-34.133c-5.12,0-8.533-3.413-8.533-8.533V331.8c0-14.507,11.093-25.6,25.6-25.6s25.6,11.093,25.6,25.6v42.667
		C280.173,379.587,276.76,383,271.64,383z M246.04,365.933h17.067V331.8c0-5.12-3.413-8.533-8.533-8.533s-8.533,3.413-8.533,8.533
		V365.933z"/>
	<path d="M348.44,178.2H160.707c-5.12,0-8.533-3.413-8.533-8.533v-34.133c0-5.12,3.413-8.533,8.533-8.533H348.44
		c5.12,0,8.533,3.413,8.533,8.533v34.133C356.973,174.787,353.56,178.2,348.44,178.2z M169.24,161.133h170.667v-17.067H169.24
		V161.133z"/>
</g>
</svg>